<svg
  width="200"
  height="50"
  viewBox="0 0 200 50"
  fill="none"
  xmlns="http://www.w3.org/2000/svg"
>
  <!-- Stylizowane W - logo -->
  <path d="M15 10L25 45H32L42 20L52 45H59L69 10H60L53 34L44 10H40L31 34L24 10H15Z" fill="#D1213D"/>
  
  <!-- Tekst "ięźniarki" -->
  <path d="M75 25C75 17.8 80.8 10 89 10C97.2 10 103 17.8 103 25C103 32.2 97.2 40 89 40C80.8 40 75 32.2 75 25ZM82 25C82 28.9 85.1 33 89 33C92.9 33 96 28.9 96 25C96 21.1 92.9 17 89 17C85.1 17 82 21.1 82 25Z" fill="#1e50a0"/>
  <path d="M106 11H113V40H106V11Z" fill="#1e50a0"/>
  <path d="M130 40C122.8 40 117 32.3 117 25C117 17.7 122.8 10 130 10C134.3 10 138.1 12.3 140.5 15.9L134.9 19.8C133.7 17.9 132 17 130 17C126.1 17 124 20.7 124 25C124 29.3 126.1 33 130 33C132 33 133.7 32.1 134.9 30.2L140.5 34.1C138.1 37.7 134.3 40 130 40Z" fill="#1e50a0"/>
  <path d="M142 25C142 17.8 147.8 10 156 10C164.2 10 170 17.8 170 25C170 32.2 164.2 40 156 40C147.8 40 142 32.2 142 25ZM149 25C149 28.9 152.1 33 156 33C159.9 33 163 28.9 163 25C163 21.1 159.9 17 156 17C152.1 17 149 21.1 149 25Z" fill="#1e50a0"/>
  <path d="M171 10H178V16H184V23H178V40H171V23H165V16H171V10Z" fill="#1e50a0"/>
  <path d="M184 11H191V15C192.5 12.2 195.1 10 198 10V17C194.1 17 191 19.3 191 24V40H184V11Z" fill="#1e50a0"/>
</svg> 