<?xml version="1.0" encoding="UTF-8" standalone="no"?>
<svg width="800" height="600" viewBox="0 0 800 600" xmlns="http://www.w3.org/2000/svg">
  <!-- Tło mapy -->
  <rect width="800" height="600" fill="#f8f9fa" />
  
  <!-- Granice Polski - bazowane na oficjalnym zarysie kraju -->
  <g transform="translate(150, 80) scale(1.2)">
    <!-- Morze Bałtyckie -->
    <path d="M190,140 L470,140 L470,220 L440,230 L410,225 L370,230 L340,235
             L310,245 L280,250 L250,240 L230,225 L210,210 L190,190 L180,170 L190,140 Z"
             fill="#d6eaf8" stroke="#add8e6" stroke-width="1" />
             
    <!-- Zarys Polski -->
    <path d="M249,240 
             L280,250 L310,245 L340,235 L370,230 L410,225 L440,230 L465,235
             L485,245 L505,255 L520,270 L530,290 L535,310 L538,330 L538,350 L532,370
             L520,390 L505,410 L485,425 L465,435 L440,442 L415,446 L390,450
             L365,452 L340,450 L315,445 L290,435 L270,420 L250,400 L235,380
             L225,360 L220,340 L218,320 L220,300 L225,280 L235,260 L249,240 Z"
             fill="#f0f0f0" stroke="#333333" stroke-width="1.5" />
  
    <!-- Granice województw - uproszczone ale realistyczne -->
    <!-- Północne województwa -->
    <path d="M249,240 L310,245 L370,230 L410,225 L440,230 L465,235" 
          stroke="#cccccc" stroke-width="0.8" fill="none" />
          
    <!-- Zachodnie granice -->
    <path d="M249,240 L265,280 L270,320 L265,360 L245,400 L235,430" 
          stroke="#cccccc" stroke-width="0.8" fill="none" />
          
    <!-- Pomorskie/Kujawsko-Pomorskie -->
    <path d="M310,245 L325,275 L330,315 L320,355 L300,395 L280,425" 
          stroke="#cccccc" stroke-width="0.8" fill="none" />
          
    <!-- Wielkopolskie/Łódzkie -->
    <path d="M370,230 L380,270 L375,310 L360,350 L340,390 L320,420" 
          stroke="#cccccc" stroke-width="0.8" fill="none" />
          
    <!-- Mazowieckie -->
    <path d="M410,225 L420,265 L415,305 L400,345 L380,385 L360,415" 
          stroke="#cccccc" stroke-width="0.8" fill="none" />
          
    <!-- Podlaskie -->
    <path d="M440,230 L455,270 L460,310 L450,350 L435,390 L415,420" 
          stroke="#cccccc" stroke-width="0.8" fill="none" />
          
    <!-- Lubelskie -->
    <path d="M465,235 L480,275 L485,315 L480,355 L465,395 L445,425" 
          stroke="#cccccc" stroke-width="0.8" fill="none" />
          
    <!-- Wschodnie granice -->
    <path d="M465,235 L485,245 L505,255 L520,270 L530,290 L535,310 L538,330 L538,350 L532,370" 
          stroke="#cccccc" stroke-width="0.8" fill="none" />
          
    <!-- Centralne poziome granice -->
    <path d="M325,315 L375,310 L415,305 L460,310 L485,315" 
          stroke="#cccccc" stroke-width="0.8" fill="none" />
          
    <!-- Dolne poziome granice -->
    <path d="M320,355 L360,350 L400,345 L450,350 L480,355" 
          stroke="#cccccc" stroke-width="0.8" fill="none" />
          
    <!-- Południowe granice -->
    <path d="M300,395 L340,390 L380,385 L435,390 L465,395" 
          stroke="#cccccc" stroke-width="0.8" fill="none" />

    <!-- Śląsk/Małopolska granica -->
    <path d="M320,420 L360,415 L400,415 L445,425" 
          stroke="#cccccc" stroke-width="0.8" fill="none" />
          
    <!-- Zatoka Gdańska - charakterystyczne wcięcie -->
    <path d="M370,230 C365,235 365,240 370,245 C380,250 390,250 395,245 C400,240 395,235 390,230 C385,228 375,228 370,230 Z" 
          fill="#d6eaf8" stroke="#add8e6" stroke-width="0.8" />
  </g>
  
  <!-- Oznaczenia wszystkich jednostek penitencjarnych -->
  <!-- Województwo dolnośląskie -->
  <circle cx="350" cy="415" r="5" fill="#3b82f6" /> <!-- ZK Wrocław - zamknięty -->
  <text x="360" y="415" font-family="Arial" font-size="10" fill="#333333">Wrocław</text>
  
  <circle cx="330" cy="395" r="5" fill="#ef4444" /> <!-- AŚ Świdnica - areszt śledczy -->
  <text x="340" y="395" font-family="Arial" font-size="10" fill="#333333">Świdnica</text>

  <!-- Województwo kujawsko-pomorskie -->
  <circle cx="360" cy="250" r="5" fill="#3b82f6" /> <!-- ZK Grudziądz - zamknięty -->
  <text x="370" y="250" font-family="Arial" font-size="10" fill="#333333">Grudziądz</text>
  
  <circle cx="380" cy="290" r="5" fill="#10b981" /> <!-- ZK Czersk - półotwarty -->
  <text x="390" y="290" font-family="Arial" font-size="10" fill="#333333">Czersk</text>
  
  <!-- Województwo lubelskie -->
  <circle cx="490" cy="380" r="5" fill="#ef4444" /> <!-- AŚ Lublin - areszt śledczy -->
  <text x="500" y="380" font-family="Arial" font-size="10" fill="#333333">Lublin</text>
  
  <!-- Województwo lubuskie -->
  <circle cx="330" cy="370" r="5" fill="#3b82f6" /> <!-- ZK Krzywaniec - zamknięty -->
  <text x="340" y="370" font-family="Arial" font-size="10" fill="#333333">Krzywaniec</text>
  
  <!-- Województwo łódzkie -->
  <circle cx="400" cy="350" r="5" fill="#ef4444" /> <!-- AŚ Łódź - areszt śledczy -->
  <text x="410" y="350" font-family="Arial" font-size="10" fill="#333333">Łódź</text>
  
  <!-- Województwo małopolskie -->
  <circle cx="415" cy="450" r="5" fill="#ef4444" /> <!-- AŚ Kraków-Podgórze - areszt śledczy -->
  <text x="425" y="450" font-family="Arial" font-size="10" fill="#333333">Kraków</text>
  
  <!-- Województwo mazowieckie -->
  <circle cx="450" cy="320" r="5" fill="#ef4444" /> <!-- AŚ Warszawa-Grochów - areszt śledczy -->
  <text x="460" y="320" font-family="Arial" font-size="10" fill="#333333">Warszawa</text>
  
  <circle cx="470" cy="340" r="5" fill="#10b981" /> <!-- ZK Siedlce - półotwarty -->
  <text x="480" y="340" font-family="Arial" font-size="10" fill="#333333">Siedlce</text>
  
  <!-- Województwo opolskie -->
  <circle cx="375" cy="420" r="5" fill="#10b981" /> <!-- ZK Opole - półotwarty -->
  <text x="385" y="420" font-family="Arial" font-size="10" fill="#333333">Opole</text>
  
  <!-- Województwo podlaskie -->
  <circle cx="510" cy="300" r="5" fill="#ef4444" /> <!-- AŚ Białystok - areszt śledczy -->
  <text x="520" y="300" font-family="Arial" font-size="10" fill="#333333">Białystok</text>
  
  <!-- Województwo śląskie -->
  <circle cx="375" cy="435" r="5" fill="#3b82f6" /> <!-- ZK Lubliniec - zamknięty -->
  <text x="385" y="435" font-family="Arial" font-size="10" fill="#333333">Lubliniec</text>
  
  <circle cx="385" cy="430" r="5" fill="#10b981" /> <!-- ZK Bytom - półotwarty -->
  <text x="395" y="430" font-family="Arial" font-size="10" fill="#333333">Bytom</text>
  
  <!-- Legenda -->
  <rect x="610" y="470" width="170" height="120" fill="white" stroke="#cccccc" rx="5" ry="5" />
  <text x="620" y="490" font-family="Arial" font-size="12" font-weight="bold" fill="#333333">Legenda:</text>
  
  <circle cx="630" y="510" r="5" fill="#3b82f6" />
  <text x="645" y="513" font-family="Arial" font-size="10" fill="#333333">Zakład karny zamknięty</text>
  
  <circle cx="630" y="530" r="5" fill="#10b981" />
  <text x="645" y="533" font-family="Arial" font-size="10" fill="#333333">Zakład karny półotwarty</text>
  
  <circle cx="630" y="550" r="5" fill="#ef4444" />
  <text x="645" y="553" font-family="Arial" font-size="10" fill="#333333">Areszt śledczy</text>
  
  <text x="620" y="575" font-family="Arial" font-size="9" fill="#666666">Mapa przedstawia przybliżone położenie</text>
  <text x="620" y="585" font-family="Arial" font-size="9" fill="#666666">jednostek penitencjarnych dla kobiet</text>
</svg> 